<svg width="24" height="25" viewBox="0 0 24 25" fill="none" xmlns="http://www.w3.org/2000/svg">
<path d="M17.7071 14.4644L20.3552 17.1126C20.7113 17.4687 20.7113 18.046 20.3552 18.4021C18.43 20.3273 15.3821 20.5439 13.204 18.9103L11.6286 17.7288C9.88504 16.4211 8.33622 14.8723 7.02857 13.1288L5.84701 11.5533C4.21341 9.3752 4.43001 6.32731 6.35523 4.40209C6.71133 4.046 7.28867 4.046 7.64477 4.40209L10.2929 7.05022C10.6834 7.44074 10.6834 8.07391 10.2929 8.46443L9.27175 9.48558C9.10946 9.64786 9.06923 9.89578 9.17187 10.1011C10.3585 12.4744 12.2829 14.3988 14.6563 15.5855C14.8615 15.6881 15.1095 15.6479 15.2717 15.4856L16.2929 14.4644C16.6834 14.0739 17.3166 14.0739 17.7071 14.4644Z" fill="#01418A"/>
<path fill-rule="evenodd" clip-rule="evenodd" d="M20.3553 18.4021C20.7114 18.046 20.7114 17.4686 20.3553 17.1125L17.7071 14.4644C17.7071 14.4644 17.707 14.4643 17.7069 14.4642C17.3164 14.0739 16.6834 14.074 16.2929 14.4644L15.5 15.2573L19.4048 19.1621C19.743 18.9487 20.0621 18.6952 20.3553 18.4021ZM5.59521 5.3525L9.50003 9.25731L10.2929 8.46442C10.6834 8.07389 10.6834 7.44073 10.2929 7.05021L7.6448 4.40208C7.2887 4.04599 6.71136 4.04599 6.35526 4.40208C6.06214 4.69521 5.80862 5.01436 5.59521 5.3525Z" fill="#252525"/>
</svg>