<svg width="24" height="25" viewBox="0 0 24 25" fill="none" xmlns="http://www.w3.org/2000/svg">
<path d="M18.6899 12.2874C18.1199 12.1374 17.4499 12.0574 16.6499 12.0574C15.5399 12.0574 15.1299 12.3274 14.5599 12.7574C14.5299 12.7774 14.4999 12.8074 14.4699 12.8374L13.5199 13.8474C12.7299 14.6974 11.2799 14.6974 10.4799 13.8474L9.52993 12.8474C9.49993 12.8074 9.46993 12.7774 9.43993 12.7574C8.85993 12.3274 8.44993 12.0574 7.34993 12.0574C6.54993 12.0574 5.87993 12.1274 5.30993 12.2874C2.92993 12.9274 2.92993 14.8174 2.92993 16.4774V17.4074C2.92993 19.9174 2.92993 22.7574 8.27993 22.7574H15.7199C19.2699 22.7574 21.0699 20.9574 21.0699 17.4074V16.4774C21.0699 14.8174 21.0699 12.9274 18.6899 12.2874Z" fill="#01418A"/>
<path opacity="0.4" d="M14.79 2.75732H9.21004C4.79004 2.75732 4.79004 5.10732 4.79004 7.17732V12.9673C4.79004 13.1873 4.89004 13.3873 5.06004 13.5173C5.23004 13.6473 5.46004 13.6973 5.67004 13.6373C6.12004 13.5173 6.68004 13.4573 7.35004 13.4573C8.02004 13.4573 8.16004 13.5373 8.56004 13.8373L9.47004 14.7973C10.12 15.4973 11.05 15.8973 12.01 15.8973C12.97 15.8973 13.89 15.4973 14.55 14.7973L15.46 13.8373C15.86 13.5373 16 13.4573 16.67 13.4573C17.34 13.4573 17.9 13.5173 18.35 13.6373C18.56 13.6973 18.78 13.6473 18.96 13.5173C19.13 13.3873 19.23 13.1773 19.23 12.9673V7.17732C19.21 5.10732 19.21 2.75732 14.79 2.75732Z" fill="#01418A"/>
<path d="M13.55 10.6673H10.45C10.06 10.6673 9.75 10.3573 9.75 9.96733C9.75 9.57733 10.06 9.26733 10.45 9.26733H13.55C13.94 9.26733 14.25 9.57733 14.25 9.96733C14.25 10.3473 13.93 10.6673 13.55 10.6673Z" fill="#01418A"/>
<path d="M14.33 7.8773H9.66997C9.27997 7.8773 8.96997 7.5673 8.96997 7.1773C8.96997 6.7873 9.27997 6.47729 9.66997 6.47729H14.32C14.71 6.47729 15.02 6.7873 15.02 7.1773C15.02 7.5573 14.71 7.8773 14.33 7.8773Z" fill="#01418A"/>
</svg>
