<svg width="24" height="25" viewBox="0 0 24 25" fill="none" xmlns="http://www.w3.org/2000/svg">
<path d="M14.2 3.479C12.9734 3.479 11.797 3.96628 10.9296 4.83363C10.0623 5.70099 9.575 6.87737 9.575 8.104V10.679H7.1C6.97574 10.679 6.875 10.7797 6.875 10.904V14.304C6.875 14.4283 6.97574 14.529 7.1 14.529H9.575V21.504C9.575 21.6283 9.67574 21.729 9.8 21.729H13.2C13.3243 21.729 13.425 21.6283 13.425 21.504V14.529H15.9219C16.0252 14.529 16.1152 14.4587 16.1402 14.3586L16.9902 10.9586C17.0257 10.8166 16.9183 10.679 16.7719 10.679H13.425V8.104C13.425 7.89846 13.5067 7.70133 13.652 7.55599C13.7973 7.41065 13.9945 7.329 14.2 7.329H16.8C16.9243 7.329 17.025 7.22826 17.025 7.104V3.704C17.025 3.57974 16.9243 3.479 16.8 3.479H14.2Z" fill="#01418A"/>
</svg>
