<svg width="24" height="25" viewBox="0 0 24 25" fill="none" xmlns="http://www.w3.org/2000/svg">
<g clip-path="url(#clip0_220_92)">
<path d="M15.15 9.00394C14.3836 9.00131 13.6242 9.14984 12.9152 9.44102C12.2062 9.7322 11.5616 10.1603 11.0182 10.7009C10.4749 11.2415 10.0434 11.8839 9.74861 12.5913C9.45379 13.2988 9.30136 14.0575 9.30005 14.8239V20.7039C9.30005 20.9426 9.39487 21.1716 9.56365 21.3403C9.73244 21.5091 9.96135 21.6039 10.2 21.6039H12.3C12.5387 21.6039 12.7677 21.5091 12.9364 21.3403C13.1052 21.1716 13.2 20.9426 13.2 20.7039V14.8239C13.1999 14.5513 13.2571 14.2818 13.3681 14.0328C13.4791 13.7838 13.6413 13.561 13.8441 13.3789C14.047 13.1968 14.2859 13.0595 14.5454 12.9759C14.8049 12.8924 15.0791 12.8644 15.35 12.8939C15.8361 12.9552 16.2827 13.1926 16.6053 13.5613C16.9278 13.9299 17.1039 14.4041 17.1 14.8939V20.7039C17.1 20.9426 17.1949 21.1716 17.3637 21.3403C17.5324 21.5091 17.7614 21.6039 18 21.6039H20.1C20.3387 21.6039 20.5677 21.5091 20.7364 21.3403C20.9052 21.1716 21 20.9426 21 20.7039V14.8239C20.9987 14.0575 20.8463 13.2988 20.5515 12.5913C20.2567 11.8839 19.8252 11.2415 19.2819 10.7009C18.7385 10.1603 18.0939 9.7322 17.3849 9.44102C16.6759 9.14984 15.9165 9.00131 15.15 9.00394Z" fill="#01418A"/>
<path d="M6.6 9.90405H3.9C3.40294 9.90405 3 10.307 3 10.8041V20.7041C3 21.2011 3.40294 21.6041 3.9 21.6041H6.6C7.09706 21.6041 7.5 21.2011 7.5 20.7041V10.8041C7.5 10.307 7.09706 9.90405 6.6 9.90405Z" fill="#01418A"/>
<path d="M5.25 8.104C6.49264 8.104 7.5 7.09664 7.5 5.854C7.5 4.61136 6.49264 3.604 5.25 3.604C4.00736 3.604 3 4.61136 3 5.854C3 7.09664 4.00736 8.104 5.25 8.104Z" fill="#01418A"/>
</g>
<defs>
<clipPath id="clip0_220_92">
<rect width="24" height="24" fill="white" transform="translate(0 0.604004)"/>
</clipPath>
</defs>
</svg>
