<svg width="24" height="25" viewBox="0 0 24 25" fill="none" xmlns="http://www.w3.org/2000/svg">
<circle cx="12" cy="12.7573" r="8" fill="#CECECE" fill-opacity="0.15" stroke="#01418A" stroke-width="1.2"/>
<path d="M18.572 7.17859C17.8483 7.96058 16.8869 8.6022 15.7672 9.05045C14.6475 9.4987 13.4017 9.74072 12.1326 9.7565C10.8636 9.77228 9.60778 9.56138 8.4689 9.14122C7.33002 8.72106 6.34077 8.1037 5.58288 7.34014" stroke="#01418A" stroke-width="1.2"/>
<path d="M18.572 18.3361C17.8483 17.5541 16.8869 16.9124 15.7672 16.4642C14.6475 16.0159 13.4017 15.7739 12.1326 15.7581C10.8636 15.7424 9.60778 15.9533 8.4689 16.3734C7.33002 16.7936 6.34077 17.4109 5.58288 18.1745" stroke="#01418A" stroke-width="1.2"/>
<path d="M12 4.75732V20.7573" stroke="#01418A" stroke-width="1.2"/>
<path d="M20 12.7573H4" stroke="#01418A" stroke-width="1.2"/>
</svg>
