<svg width="24" height="25" viewBox="0 0 24 25" fill="none" xmlns="http://www.w3.org/2000/svg">
<path d="M4 16.7573V11C4 10.8885 4.11735 10.816 4.21708 10.8659L10.6584 14.0865C11.5029 14.5088 12.4971 14.5088 13.3416 14.0865L19.7829 10.8659C19.8827 10.816 20 10.8885 20 11V16.7573C20 17.8619 19.1046 18.7573 18 18.7573H6C4.89543 18.7573 4 17.8619 4 16.7573Z" fill="#252525"/>
<path d="M4 8.75732V9.66462C4 9.72144 4.0321 9.77337 4.08292 9.79878L10.6584 13.0865C11.5029 13.5088 12.4971 13.5088 13.3416 13.0865L19.9171 9.79878C19.9679 9.77337 20 9.72144 20 9.66462V8.75732C20 7.65275 19.1046 6.75732 18 6.75732H6C4.89543 6.75732 4 7.65275 4 8.75732Z" fill="#01418A"/>
</svg>
