<svg width="24" height="25" viewBox="0 0 24 25" fill="none" xmlns="http://www.w3.org/2000/svg">
<path d="M21.8097 6.83124C21.8677 6.75047 21.7821 6.64618 21.6894 6.68211C21.0307 6.93744 20.3422 7.10971 19.64 7.1946C20.4219 6.72748 21.0253 6.0164 21.3599 5.17453C21.3939 5.08877 21.3003 5.01219 21.2195 5.0568C20.4928 5.45814 19.709 5.74713 18.8949 5.91357C18.8608 5.92054 18.8257 5.90894 18.8018 5.88369C18.1908 5.23902 17.3865 4.80978 16.5098 4.66145C15.6146 4.51001 14.6945 4.65996 13.8938 5.08779C13.093 5.51562 12.4569 6.19713 12.0852 7.02544C11.7318 7.813 11.6365 8.69091 11.8108 9.53403C11.8243 9.59945 11.7731 9.66121 11.7064 9.65707C10.1224 9.55869 8.57469 9.13736 7.15868 8.41846C5.74627 7.70139 4.49554 6.70383 3.48267 5.4873C3.43772 5.43331 3.35252 5.44029 3.31976 5.50245C3.0046 6.10051 2.83958 6.76711 2.84003 7.4446C2.83875 8.11898 3.00424 8.78322 3.32178 9.37816C3.63932 9.97311 4.09905 10.4803 4.66003 10.8546C4.0651 10.8384 3.48178 10.6913 2.95128 10.4247C2.88291 10.3903 2.8009 10.4392 2.80446 10.5157C2.84583 11.4049 3.17228 12.2976 3.73734 12.9826C4.33866 13.7114 5.17328 14.2102 6.10003 14.3946C5.74328 14.5032 5.3729 14.5604 5.00003 14.5646C4.79709 14.5622 4.59454 14.5473 4.39356 14.5198C4.31904 14.5096 4.2582 14.5804 4.28428 14.6509C4.5607 15.3984 5.04902 16.0507 5.6911 16.5268C6.37755 17.0358 7.2056 17.3182 8.06003 17.3346C6.61723 18.4699 4.83591 19.0895 3.00003 19.0946C2.81138 19.0952 2.62282 19.0891 2.43471 19.0763C2.3287 19.0691 2.27995 19.2103 2.37132 19.2645C4.16009 20.3261 6.20462 20.8871 8.29003 20.8846C9.82972 20.9006 11.3571 20.6096 12.7831 20.0287C14.2091 19.4477 15.505 18.5885 16.5952 17.5011C17.6854 16.4137 18.548 15.12 19.1326 13.6955C19.7171 12.271 20.012 10.7443 20 9.2046V8.72477C20 8.6932 20.0149 8.66351 20.0401 8.64448C20.7184 8.13234 21.3149 7.52091 21.8097 6.83124Z" fill="#01418A"/>
</svg>
